# xmcd
#
# Track frame offsets:
#	150
#	15388
#	30759
#	51127
#	68824
#	93911
#	111876
#	131210
#	144988
#	163520
#	181950
#	203941
#	212731
#	230346
#	249491
#	265783
#	281739
#	299702
#	314328
#
# Disc length: 4608 seconds
#
# Revision: 3
# Processed by: cddbd v1.5.2PL0 Copyright (c) Steve Scherf et al.
# Submitted via: audiograbber 1.83.01
#
DISCID=1311fe13
DTITLE=Various Artist - Cream Of Country 5
DYEAR=2001
DGENRE=Country
TTITLE0=Brooks and Dunn - Ain't Nothing 'Bout You
TTITLE1=Toby Keith - How Do You Like Me Now?
TTITLE2=Keith Urban - But For The Grace Of God
TTITLE3=Jamie O'Neal - There Is No Arizona
TTITLE4=Sara Evans - Born To Fly
TTITLE5=Alan Jackson - Where I Come From
TTITLE6=Soggy Bottom Boys and Dan Tyminski Band - I Am A Man Of Constant Sorrow
TTITLE7=Dixie Chicks - If I Fall You're Going Down With Me
TTITLE8=Martina McBride - When God-Fearin' Women Get The Blues
TTITLE9=Brad Paisley - Two People Fell In Love
TTITLE10=Lee Ann Womack - I Hope You Dance
TTITLE11=Emmylou Harris, Alison Krauss and Gillian Welch - Didn't Leave Nobody Bu
TTITLE11=t The Baby
TTITLE12=Phil Vassar - Just Another Day In Paradise
TTITLE13=Jessica Andrews - Who I Am
TTITLE14=Diamond Rio - One More Day
TTITLE15=Brad Paisley with featured vocals by George Jones, Bill Anderson and Buc
TTITLE15=k Owens - Too Country
TTITLE16=Alison Krauss and Gillian Welch - I'll Fly Away
TTITLE17=The Warren Brothers - Move On
TTITLE18=Alabama - When It All Goes South
EXTD=YEAR: 2001
EXTT0=
EXTT1=
EXTT2=
EXTT3=
EXTT4=
EXTT5=
EXTT6=
EXTT7=
EXTT8=
EXTT9=
EXTT10=
EXTT11=
EXTT12=
EXTT13=
EXTT14=
EXTT15=
EXTT16=
EXTT17=
EXTT18=
PLAYORDER=
